<svg width="308" height="268" viewBox="0 0 308 268" fill="none" xmlns="http://www.w3.org/2000/svg">
<path d="M160.75 161.014C160.887 161.007 161 185.074 161 214.498V267.998H152L152.014 166.498L156.257 163.764C158.591 162.26 160.613 161.023 160.75 161.014ZM82.5 179.076C108.325 178.873 128.391 189.491 137.761 208.318C141.28 215.39 143.762 223.569 142.708 224.623C141.603 225.728 127.19 223.314 118.677 220.598C112.02 218.475 104.39 214.807 100.516 211.869C95.2937 207.908 89.7718 202.276 84.9629 196.005C81.7969 191.876 77.3481 186.708 75.0771 184.52C71.5165 181.089 71.193 180.446 72.7236 179.84C73.7006 179.454 78.1 179.11 82.5 179.076ZM219.5 179.652C222.705 178.976 242 178.937 242 179.608C241.998 179.945 239.676 182.758 236.838 185.858C233.999 188.96 230.952 192.686 230.064 194.141C225.955 200.876 213.496 212.282 206.326 215.871C199.238 219.42 187.413 222.985 178.956 224.123C174.514 224.721 170.675 225.006 170.425 224.756C169.629 223.958 173.907 211.417 176.698 206.369C180.55 199.401 190.911 189.51 197.909 186.12C202.908 183.699 209.04 181.862 219.5 179.652ZM10.9141 119.89C16.3432 118.111 30.0683 120.291 33.8203 123.528C34.1896 123.854 30.1334 131.998 29.6016 131.998C29.4024 131.997 27.6277 131.322 25.6543 130.498C19.2483 127.821 11 129.182 11 132.914C11.0001 134.787 15.0429 136.862 21.8936 138.508C31.7445 140.874 35.0831 143.807 35.7432 150.677C36.1962 155.393 35.9832 156.011 32.6162 159.738C26.5162 166.49 15.148 167.811 4.3291 163.025C-0.526898 160.877 -1.18719 158.685 1.88281 154.895C3.56168 152.821 4.05612 152.703 6.45703 153.796C11.046 155.887 17.343 156.904 21 156.143C23.8539 155.55 24.5 154.962 24.5 152.957C24.5 150.744 23.5499 150.175 15 147.273C3.91013 143.507 9.03241e-05 140.165 0 134.45C4.74415e-07 127.313 3.82206 122.214 10.9141 119.89ZM130.75 120.161C143.116 120.481 145.072 120.783 150.18 123.17C154.865 125.358 156.407 126.758 158.986 131.161C161.868 136.08 162.081 137.064 161.708 143.725C161.206 152.687 158.308 157.401 150.708 161.612C145.766 164.35 144.771 164.516 131.25 164.842L117 165.186V119.806L130.75 120.161ZM100.922 119.998C104.435 119.998 105.955 120.437 106.393 121.58C107.198 123.678 107.172 151.056 106.358 158.851L105.715 164.998L101.108 164.987L96.5 164.977L87 152.934C81.776 146.312 77.3515 140.468 77.167 139.945C76.983 139.424 76.4342 138.998 75.9473 138.998C75.4593 138.998 74.9343 144.736 74.7803 151.748L74.5 164.498L69.25 164.8L64 165.103V143.217C64 131.18 64.3 121.031 64.667 120.665C65.033 120.298 67.2289 119.998 69.5459 119.998C73.3619 119.998 74.1229 120.445 77.6279 124.748C79.7559 127.361 82.2395 130.398 83.1465 131.498C84.0548 132.598 87.2047 136.423 90.1484 139.998L95.5 146.498L95.7793 133.248L96.0576 119.998H100.922ZM171.667 120.665C172.763 119.569 194.186 119.922 198.453 121.107C209.288 124.116 213.52 137.473 206.341 146.004C202.53 150.533 198.592 152.147 189.892 152.743L182.091 153.278L181.796 158.888L181.5 164.498L176.25 164.8L171 165.103V143.217C171 131.18 171.3 121.031 171.667 120.665ZM308 164.998H298.11L291.805 157.089C288.337 152.738 283.708 146.888 281.52 144.089C279.331 141.289 277.193 138.998 276.77 138.998C276.346 139.002 276 144.874 276 152.05V165.103L270.75 164.8L265.5 164.498L265.229 143.524C265.081 131.99 265.178 121.979 265.448 121.274C265.754 120.475 267.726 120.016 270.719 120.047C276.027 120.1 274.213 118.383 290.171 138.462L296.5 146.427L296.747 135.462C297.099 119.814 297.024 119.998 303.019 119.998H308V164.998ZM54 164.998H43V143.165C43 131.156 43.3 121.031 43.667 120.665C44.033 120.298 46.508 119.998 49.167 119.998H54V164.998ZM234.985 119.998C240.22 119.998 240.782 120.22 241.958 122.748C244.054 127.252 256.032 155.119 258.077 160.248L259.971 164.998H248.167L245.337 156.498L234.803 156.216L224.27 155.933L223.229 158.716C222.656 160.246 221.934 162.286 221.625 163.248C221.179 164.636 219.918 164.998 215.531 164.998C212.491 164.998 210.003 164.746 210 164.438C210 163.621 220.542 138.951 225.251 128.748L229.29 119.998H234.985ZM128 142.431C128 156.632 128.014 156.653 136.737 155.489C144.26 154.485 146.93 153.054 149.053 148.895C151.465 144.166 151.528 140.088 149.25 136.083C146.827 131.822 142.434 129.998 134.599 129.998H128V142.431ZM234.954 132.998C234.573 132.998 233.078 135.728 231.631 139.064C230.184 142.4 229 145.55 229 146.064C229.003 147.168 239.674 147.342 240.336 146.248C240.903 145.312 235.901 132.999 234.954 132.998ZM197.164 132.23C195.651 129.845 184.465 127.866 182.667 129.665C182.3 130.031 182 133.181 182 136.665V142.998H187.777C195.014 142.998 198.006 141.149 197.985 136.691C197.976 134.936 197.607 132.928 197.164 132.23ZM141.099 57.4912C146.506 58.6322 153.902 66.7758 155.571 73.4238C155.929 74.8496 156.691 76.3069 157.265 76.6621C157.839 77.0171 158.017 76.8348 157.661 76.2588C156.834 74.9196 159.153 69.3442 162.089 65.6123C164.619 62.3953 172.604 56.998 174.833 56.998C175.988 56.998 176.173 58.236 175.762 63.248C174.769 75.394 173.016 78.6185 162.067 88.4395L157.673 92.3809L158.349 89.0039C158.72 87.1469 161.008 82.4437 163.432 78.5547C165.856 74.6649 168.103 70.1364 168.425 68.4902C168.889 66.1103 168.547 66.4389 166.754 70.0957C163.82 76.0796 157.726 83.6757 157.178 82.0322C156.845 81.0333 156.599 81.029 155.991 82.0127C154.661 84.1637 152.864 81.986 148.784 73.2783C146.609 68.6376 144.638 65.0326 144.401 65.2637C143.901 65.7627 150.83 81.2441 151.888 81.9922C153.702 83.2732 156.07 90.2014 155.403 92.2744C154.705 94.4411 154.663 94.4279 153.76 91.748C153.25 90.2361 152.427 88.998 151.929 88.998C151.432 88.999 152.145 91.5297 153.513 94.6221C154.881 97.7161 156.024 101.653 156.054 103.372C156.099 105.982 156.412 105.544 157.952 100.728C160.466 92.8598 165.559 85.8256 170.684 83.1416C175.408 80.6676 176.351 82.439 174.85 90.96C173.594 98.0888 168.977 104.832 163.605 107.381L160.08 109.054L159.5 125.298L156.25 122.559C153.378 120.139 152.993 119.22 152.943 114.659C152.888 109.659 152.729 109.379 147.847 105.657C142.189 101.345 139.25 95.9055 138.316 88.0176C137.511 81.214 139.48 80.5123 145.511 85.4541C150.601 89.6241 151.602 88.8946 146.911 84.4346C141.164 78.9706 138.864 73.7777 138.255 64.8857L137.699 56.7734L141.099 57.4912ZM129.257 86.1885C130.282 84.9545 130.567 85.0952 131.133 87.1152C132.397 91.6252 131.952 97.5071 130.027 101.748C127.976 106.267 126.777 106.703 120.089 105.366C116.774 104.703 111 100.035 111 98.0166C111.001 96.1303 116.981 97.7881 121.629 100.964C124.988 103.26 125.671 103.454 125.292 102.005C124.711 99.7837 127.627 88.1535 129.257 86.1885ZM194.697 72.0947C195.376 74.5157 196.23 78.298 196.594 80.498C196.958 82.698 197.461 83.9359 197.711 83.248C197.962 82.561 198.597 81.998 199.124 81.998C199.65 81.998 201.3 81.1037 202.79 80.0117C204.281 78.9188 206.971 77.7359 208.768 77.3828C211.661 76.8138 211.959 76.9561 211.369 78.6191C210.078 82.2561 206.539 85.0762 201.386 86.5742C198.522 87.4072 195.928 88.743 195.621 89.543C195.314 90.343 194.572 90.998 193.972 90.998C193.373 90.9979 193.1 90.6458 193.366 90.2148C193.632 89.7833 193.388 87.2647 192.823 84.6172C191.295 77.4502 189.809 80.3464 191.139 87.8984C192.053 93.0831 192.005 94.3781 190.877 95.0791C189.849 95.717 189.156 94.9109 188.146 91.9033C187.401 89.6873 186.612 88.0534 186.391 88.2734C186.171 88.496 186.493 90.1123 187.104 91.8672C187.716 93.6232 187.985 95.9463 187.702 97.0303C187.418 98.1139 187.595 98.7489 188.093 98.4404C188.592 98.1324 189 98.5825 189 99.4395C189 100.296 188.564 100.998 188.031 100.998C187.499 100.998 187.314 101.653 187.621 102.453C188.066 103.611 188.619 103.439 190.34 101.605C193.31 98.4396 196.311 96.9982 199.934 96.998C203.435 96.998 203.737 97.8473 201.25 100.697C198.624 103.705 193.543 105.998 189.501 105.998C186.236 105.998 185.723 105.603 183.973 101.748C181.204 95.6482 181.569 85.2358 184.513 86.3652C185.355 86.6882 185.97 85.3209 186.398 82.1709C186.747 79.6012 187.475 76.8233 188.016 75.998C188.891 74.665 189.109 74.665 189.985 75.998C190.788 77.2208 190.972 77.0908 190.985 75.2949C190.993 74.0829 191.554 71.8766 192.23 70.3916L193.461 67.6914L194.697 72.0947ZM106.033 88.2295C105.95 85.0505 118.523 90.9625 119.417 94.5225C119.725 95.7523 120.883 96.9962 121.989 97.2852C123.095 97.5742 124 98.3033 124 98.9043C124 100.515 122.579 100.242 119.869 98.1104C118.549 97.0714 115.774 95.7526 113.703 95.1816C109.956 94.1467 106.098 90.6495 106.033 88.2295ZM198.832 90.0244C202.669 87.9974 207 87.3823 207 88.8633C207 90.7264 202.748 94.998 200.895 94.998C199.817 94.9982 197.432 95.6257 195.597 96.3926L192.258 97.7881L193.711 94.875C194.511 93.272 196.815 91.0894 198.832 90.0244ZM147 92.998C145.946 91.073 145.084 89.9481 145.084 90.498C145.084 91.0481 145.946 93.0731 147 94.998C148.054 96.923 148.916 98.0479 148.916 97.498C148.916 96.948 148.054 94.923 147 92.998ZM123 78.3389C123 72.68 124.41 72.8189 126.406 78.6758C128.438 84.6398 128.421 85.0144 125.869 90.8604C124.2 94.6821 123.331 95.6358 121.869 95.2529C119.622 94.6659 119.588 93.9279 121.511 87.5889C122.33 84.8889 123 80.7269 123 78.3389ZM114.267 60.998C115.696 60.998 117.93 64.167 117.968 66.248C117.986 67.211 118.395 67.9979 118.879 67.998C121.186 67.998 122.133 73.8093 121.07 81.4473C120.482 85.6802 120 89.5603 120 90.0703C120 90.5808 119.1 90.0978 118 88.998C116.9 87.898 115.049 86.998 113.886 86.998C108.702 86.9978 99.8793 78.7862 102.378 76.2871C103.101 75.5641 107.649 77.7388 113.12 81.4238L116.741 83.8633L117.396 78.2891C118.143 71.9321 117.527 70.1853 116.261 75.0703C114.216 82.9618 111.743 76.7245 112.752 66.2217C113.029 63.3495 113.71 60.9992 114.267 60.998ZM197.068 62.8711C198.433 60.3202 200.403 60.9502 200.835 64.0762C201.019 65.4081 201.581 66.9263 202.085 67.4482C202.588 67.9703 202.968 69.0953 202.93 69.9482C202.881 71.0209 202.618 70.8828 202.073 69.498C201.432 67.867 201.205 68.191 200.844 71.248C200.396 75.047 201.24 76.1299 202.7 73.6279C203.41 72.4137 211.064 67.9981 212.46 67.998C212.757 67.998 213 68.8279 213 69.8428C213 72.0798 211.035 73.8391 204.635 77.3311C200.1 79.8059 199.805 79.851 200.291 77.9922C200.853 75.8432 199.456 75.18 198.724 77.248C198.151 78.8684 196.013 71.3465 196.006 67.6816C196.003 66.1337 196.48 63.969 197.068 62.8711ZM100.491 69.0117C100.747 68.6001 102.824 68.7632 105.108 69.3721C108.281 70.219 109.629 71.2491 110.811 73.7266C111.662 75.5116 112.052 77.2793 111.678 77.6543C110.044 79.2851 99.2813 70.9706 100.491 69.0117ZM209.337 52.0586C211.076 50.9446 212.95 50.1861 213.5 50.3721C214.804 50.8122 214.437 61.3131 213.025 63.9512C212.425 65.0731 210.084 66.9349 207.824 68.0879C204.325 69.8728 203.808 69.9399 204.346 68.5391C204.715 67.5762 204.567 67.1471 203.989 67.5049C202.894 68.1819 202.704 67.15 202.99 62.0732C203.229 57.8342 205.217 54.6966 209.337 52.0586ZM100 56.5752C100 48.5392 100.87 48.3001 107.384 54.541C111.967 58.933 112.109 59.24 111.633 63.791C111.362 66.3798 111.109 68.6107 111.07 68.748C111.032 68.885 109.84 68.998 108.423 68.998C106.908 68.998 104.641 67.7931 102.923 66.0752C100.285 63.4372 100 62.511 100 56.5752ZM172.493 31.998C174.328 31.9986 174.928 41.2972 173.473 47.207C172.071 52.9039 168.773 57.9299 164.528 60.8379C160.834 63.3699 159 63.589 159 61.498C159 60.673 158.55 59.998 158 59.998C157.45 59.998 157.004 58.086 157.008 55.748C157.018 50.8281 160.23 44.714 166.839 37.0381C169.226 34.2661 171.77 31.998 172.493 31.998ZM140.831 30.998C141.208 30.9982 143.088 32.8295 145.009 35.0684C146.929 37.3063 149.327 40.0463 150.339 41.1563C153.699 44.8463 155.955 51.2851 155.978 57.248C156.002 63.445 155.54 63.8464 151.051 61.5244C143.038 57.3814 138.165 46.839 139.462 36.4561C139.837 33.4541 140.453 30.998 140.831 30.998ZM167.593 45.2568C167.34 45.0061 165.949 47.1398 164.5 49.998C163.051 52.857 162.053 55.3843 162.282 55.6143C162.513 55.8416 163.904 53.7091 165.375 50.873C166.847 48.036 167.845 45.5088 167.593 45.2568ZM145.331 42C145.059 41.726 145.174 42.851 145.585 44.5C146.464 48.026 149.945 55.9518 149.978 54.498C150.002 53.3371 146.062 42.7393 145.331 42ZM156.984 3.32198e-07C157.269 0.00270683 158.687 1.9141 160.137 4.25C169.287 18.989 169.708 28.8163 161.662 39.7783C159.628 42.5492 157.313 44.7195 156.517 44.6025C154.123 44.2509 150.106 38.8406 147.9 32.998C144.739 24.625 146.52 15.1936 153.184 5.01465C154.99 2.25568 156.7 -0.000999636 156.984 3.32198e-07ZM157 34.498C156.399 34.127 156.006 35.4015 156.015 37.6895C156.024 39.7843 156.467 42.1731 157 42.998C157.702 44.084 157.974 43.2036 157.985 39.8066C157.993 37.2268 157.55 34.8381 157 34.498Z" fill="#FF9712"/>
<path d="M8.83478 120.17C13.1117 118.178 26.1032 118.854 29.6873 121.254C32.3577 123.044 32.3674 123.093 30.7303 126.604C29.8043 128.588 28.53 129.933 27.8338 129.66C18.9979 126.195 11.7846 126.609 10.7938 130.642C9.76236 134.842 10.925 135.909 18.5994 137.799C31.2621 140.919 34.5007 143.649 34.5008 151.199C34.5007 155.078 33.9531 156.427 31.2362 159.242C27.3417 163.277 22.869 165 16.2899 165C11.2493 165 4.10497 162.691 1.15119 160.108C-0.447966 158.709 -0.425655 158.434 1.49885 155.773C3.48231 153.031 3.65744 152.986 6.59846 154.487C10.3997 156.424 17.1825 157.251 21.8817 156.351C24.75 155.8 25.4596 155.196 25.4598 153.303C25.4594 149.973 22.7851 147.955 16.6199 146.632C10.5838 145.336 5.90822 143.14 2.60627 140.055C0.869859 138.432 0.346606 136.812 0.346503 133.066C0.346616 127.497 3.54696 122.634 8.83478 120.17ZM244.134 127.708C246.094 132.047 247.807 136.091 247.938 136.694C248.07 137.297 249.206 140.099 250.464 142.921C259.509 163.21 259.733 163.964 256.761 163.987C255.794 163.995 253.983 164.28 252.736 164.622C250.76 165.163 250.193 164.564 248.323 159.965L246.178 154.687L235.209 154.81C224.333 154.931 224.228 154.956 223.141 157.655C222.539 159.153 221.923 160.999 221.772 161.757C221.341 163.934 220.834 164.113 216.041 163.777L211.519 163.459L216.217 151.65C218.8 145.155 222.933 135.349 225.401 129.861L229.888 119.88L235.227 119.848L240.567 119.816L244.134 127.708ZM52.5838 163.973H43.5428V119.816H52.5838V163.973ZM101.054 120.014L105.323 120.329L105.594 142.152L105.865 163.973H100.655C96.7773 163.96 96.48 163.455 86.3348 150.623C84.3258 148.082 81.3339 144.301 79.6873 142.22C78.0405 140.141 76.6941 137.908 76.6932 137.257C76.693 136.607 76.1281 136.267 75.4373 136.502C74.5373 136.807 74.1021 140.756 73.9012 150.45L73.6209 163.973H64.6385V119.816H69.1004C73.3913 119.816 73.7445 120.061 78.3602 126.235C80.9997 129.764 83.6262 133.168 84.1961 133.8C84.7666 134.432 87.4929 137.779 90.2547 141.237C93.0169 144.697 95.6501 147.531 96.1063 147.535C96.5618 147.538 96.8529 146.27 96.7528 144.719C96.6533 143.166 96.6193 136.9 96.6776 130.797L96.784 119.697L101.054 120.014ZM131.159 119.839C141.398 119.858 144.264 120.218 148.016 121.956C156.779 126.018 161.076 132.522 161.076 141.728C161.076 148.985 159.055 153.701 154.081 158.054C148.538 162.905 144.226 163.973 130.195 163.973H118.131L117.497 160.733C116.874 157.546 117.677 123.617 118.434 121.1C118.717 120.162 122.15 119.823 131.159 119.839ZM184.161 119.816C198.096 119.816 202.769 121.203 206.731 126.513C211.741 133.228 209.133 144.952 201.724 149.031C199.657 150.169 195.082 151.145 190.001 151.531L181.67 152.163L181.368 158.069L181.066 163.973H170.816L171.472 153.03C171.832 147.013 172.126 137.077 172.126 130.951V119.816H184.161ZM267.064 119.637C267.614 119.083 276.392 120.238 276.954 120.939C277.143 121.174 279.716 124.595 282.677 128.545C294.836 144.769 297.053 147.542 297.857 147.542C298.321 147.534 298.701 141.299 298.701 133.679V119.816H307.742V140.867C307.742 152.443 307.855 162.262 307.993 162.69C308.127 163.113 306.116 163.599 303.52 163.771C298.98 164.069 298.669 163.907 295.484 159.566C286.28 147.021 277.341 136.298 276.517 136.813C276.011 137.134 275.596 143.375 275.596 150.684V163.973H266.555V142.066C266.555 130.019 266.784 119.928 267.064 119.637ZM126.921 155.758H133.985C146.397 155.758 151.255 151.945 151.374 142.114C151.493 132.126 146.438 128.032 133.985 128.031H126.921V155.758ZM235.351 130.085C234.961 130.085 233.2 133.435 231.439 137.53C229.68 141.625 228.385 145.429 228.561 145.987C228.877 146.964 238.783 147.614 241.046 146.806C242.223 146.381 236.676 130.092 235.351 130.085ZM185.58 127.474C183.864 127.243 182.169 127.351 181.813 127.714C181.458 128.078 181.167 131.763 181.167 135.904V143.435H187.561C195.632 143.435 199.248 141.028 199.249 135.658C199.249 131.176 196.294 128.054 191.966 127.962C190.17 127.923 187.297 127.704 185.58 127.474Z" fill="#F84108"/>
</svg>
